Coordinates
version=1
nRows=16
nColumns=40
inDegrees=yes

Units are S.I. units (second, meters, Newtons, ...)
Angles are in degrees.

endheader
time	pelvis_tilt	pelvis_list	pelvis_rotation	pelvis_tx	pelvis_ty	pelvis_tz	hip_flexion_r	hip_adduction_r	hip_rotation_r	knee_angle_r	knee_angle_r_beta	ankle_angle_r	subtalar_angle_r	mtp_angle_r	hip_flexion_l	hip_adduction_l	hip_rotation_l	knee_angle_l	knee_angle_l_beta	ankle_angle_l	subtalar_angle_l	mtp_angle_l	lumbar_extension	lumbar_bending	lumbar_rotation	arm_flex_r	arm_add_r	arm_rot_r	elbow_flex_r	pro_sup_r	wrist_flex_r	wrist_dev_r	arm_flex_l	arm_add_l	arm_rot_l	elbow_flex_l	pro_sup_l	wrist_flex_l	wrist_dev_l
     43.30742857	     -4.86621630	     -4.40975611	     -2.44174423	      0.98143944	      0.93488743	      0.40857343	     36.12660475	     -3.10184348	     -5.46101736	     48.83434941	     48.83434941	     -0.47921778	    -15.58329073	      2.83226256	      9.35753348	     -3.42606472	     -8.47929458	     17.27227147	     17.27227147	     14.61793978	    -12.98535079	      2.55093611	    -10.47871440	      7.41534606	      2.90809412	      1.40513729	    -12.02858086	     -5.15551913	     23.25988389	     46.99738506	      0.00000000	      0.00000000	     19.44623760	    -15.60341219	     -6.74150770	     68.40872345	     47.42469339	      0.00000000	      0.00000000
     43.31985714	     -5.09415374	     -4.52304353	     -2.63987253	      0.98056012	      0.93450952	      0.40915961	     36.14772976	     -2.77227031	     -5.73890571	     44.68358983	     44.68358983	     -0.28219038	    -14.03793458	      2.61537392	      8.94394640	     -3.56135572	     -8.60572746	     16.96685865	     16.96685865	     14.85992665	    -12.84807162	      2.44364741	    -10.41947392	      7.58115773	      2.75462604	     -0.04614901	    -12.20082215	     -5.35966692	     22.67329632	     47.02677907	      0.00000000	      0.00000000	     20.31652514	    -15.99155305	     -7.08957496	     69.58740010	     47.47461141	      0.00000000	      0.00000000
     43.33228571	     -5.14884147	     -4.54148807	     -2.86969521	      0.98000465	      0.93419590	      0.40980328	     35.72980585	     -2.61461760	     -6.25671811	     40.19875686	     40.19875686	     -0.41850285	    -11.99030631	      0.99438806	      8.25119637	     -3.59476065	     -8.90309395	     16.54932091	     16.54932091	     15.15103368	    -12.55035810	      2.25080689	    -10.59923551	      7.55042473	      2.89904712	     -1.67028020	    -12.35161869	     -6.05752644	     22.23587705	     47.09287381	      0.00000000	      0.00000000	     20.97050580	    -16.05091998	     -7.66053362	     72.22921922	     47.56779980	      0.00000000	      0.00000000
     43.34471429	     -5.34424758	     -4.69050904	     -3.01383210	      0.97953857	      0.93359655	      0.41053413	     35.24297981	     -2.22712939	     -6.81990755	     35.49551157	     35.49551157	     -0.36886452	    -10.07453780	      0.90204068	      7.82122033	     -3.77535462	     -8.99047323	     16.33149165	     16.33149165	     15.43045821	    -12.49035131	      2.10153831	    -10.46448500	      7.75726734	      2.62920177	     -3.03338513	    -12.55384116	     -6.36929012	     21.92046188	     47.12085049	      0.00000000	      0.00000000	     21.59765225	    -16.41577760	     -7.97942726	     73.34443938	     47.61403208	      0.00000000	      0.00000000
     43.35714286	     -5.57534830	     -4.72148748	     -3.19238308	      0.97921238	      0.93274013	      0.41141000	     34.67608363	     -1.90884289	     -7.39842640	     30.78903102	     30.78903102	     -0.30597211	     -7.90109566	      1.05581222	      7.39750429	     -3.83368014	     -9.14560082	     16.06772395	     16.06772395	     15.70743982	    -12.42200067	      1.95115378	    -10.30381480	      7.79324949	      2.51781192	     -4.40245958	    -12.62011389	     -6.63266478	     21.65201364	     47.14188608	      0.00000000	      0.00000000	     22.30447919	    -16.68732375	     -8.26405724	     74.58611728	     47.66259873	      0.00000000	      0.00000000
     43.36957143	     -5.51693778	     -4.63454780	     -3.30238713	      0.97940673	      0.93198650	      0.41215986	     33.69702135	     -1.87256544	     -8.54858336	     26.29990363	     26.29990363	     -0.28536078	     -4.78636445	      0.75240677	      6.62553384	     -3.75558948	     -9.40400826	     15.80103796	     15.80103796	     16.06979198	    -12.08798482	      1.62532865	    -10.46060558	      7.64222064	      2.50026621	     -6.09748414	    -12.77564334	     -7.47222347	     22.06288133	     47.17830605	      0.00000000	      0.00000000	     22.70111499	    -16.75684786	     -8.65182303	     76.96845397	     47.74246777	      0.00000000	      0.00000000
     43.38200000	     -5.60845540	     -4.67466111	     -3.39121253	      0.97969837	      0.93092033	      0.41323731	     32.80134834	     -1.46507422	     -9.29470268	     22.02420984	     22.02420984	     -0.32588313	     -2.71230524	      1.55761427	      6.08661153	     -3.83321621	     -9.44157818	     15.68107102	     15.68107102	     16.41728408	    -12.05711710	      1.37533287	    -10.30394916	      7.67983850	      2.31247644	     -7.45038555	    -12.90044909	     -7.86896439	     22.06694893	     47.19677633	      0.00000000	      0.00000000	     23.16098005	    -16.97384382	     -8.82872535	     78.06801907	     47.78180445	      0.00000000	      0.00000000
     43.39442857	     -5.65065775	     -4.56517607	     -3.48446888	      0.98022871	      0.92963868	      0.41437088	     32.07841444	     -1.34671661	    -10.53524413	     18.71495706	     18.71495706	      0.29733421	      0.20916863	      3.58126608	      5.45987550	     -3.77032158	     -9.68741762	     15.51404076	     15.51404076	     16.72644335	    -11.79479148	      0.84291456	    -10.25678662	      7.51152965	      2.24583108	     -9.15799415	    -12.85590624	     -9.25375542	     23.34222812	     47.22578851	      0.00000000	      0.00000000	     23.39203900	    -17.16056283	     -8.95339818	     80.02898813	     47.84617439	      0.00000000	      0.00000000
     43.40685714	     -5.68898051	     -4.54725653	     -3.53221823	      0.98093696	      0.92836076	      0.41565192	     31.42558859	     -1.07751861	    -11.55738390	     16.09354344	     16.09354344	      1.14501619	      2.32906753	      6.61244687	      4.85970735	     -3.81250120	     -9.78807863	     15.43102972	     15.43102972	     17.03801726	    -11.66953154	      0.38177948	    -10.12614771	      7.45032209	      2.31489619	    -10.68249198	    -12.78261542	    -10.58600263	     24.02272226	     47.26162689	      0.00000000	      0.00000000	     23.91172181	    -17.15952708	     -8.73789553	     80.98004520	     47.88125639	      0.00000000	      0.00000000
     43.41928571	     -5.75683675	     -4.53067879	     -3.56695692	      0.98180011	      0.92692851	      0.41717162	     30.81411506	     -0.72025789	    -12.21921400	     13.98651393	     13.98651393	      1.18586996	      3.32707041	      7.34040656	      4.31390701	     -3.86609407	     -9.79999993	     15.41057101	     15.41057101	     17.42289728	    -11.65561356	      0.18709927	     -9.88585306	      7.37495291	      2.25967214	    -11.66203589	    -12.74544352	    -10.74562623	     23.81358519	     47.26842018	      0.00000000	      0.00000000	     24.30420348	    -17.15906272	     -8.71878887	     81.55141021	     47.89498785	      0.00000000	      0.00000000
     43.43171429	     -5.75501476	     -4.55354867	     -3.59057729	      0.98292146	      0.92558608	      0.41881313	     30.24423577	     -0.41481149	    -13.03209905	     12.72833270	     12.72833270	      1.40317878	      4.37336977	      7.99584978	      3.65884460	     -3.98032398	     -9.86264018	     15.36964377	     15.36964377	     17.85207623	    -11.50176164	     -0.03364405	     -9.71343277	      7.34832014	      2.25544096	    -12.64239193	    -12.68126361	    -10.96640336	     23.75262156	     47.27250837	      0.00000000	      0.00000000	     24.58712473	    -17.07643124	     -8.57147248	     82.25571374	     47.90581267	      0.00000000	      0.00000000
     43.44414286	     -5.80840059	     -4.57827021	     -3.60411967	      0.98415279	      0.92415460	      0.42065968	     29.86790854	     -0.14026015	    -13.65415616	     12.27526755	     12.27526755	      1.62547923	      4.87776145	      8.25613974	      3.07250066	     -4.11636148	     -9.91921589	     15.35950445	     15.35950445	     18.27332338	    -11.33258688	     -0.20376806	     -9.44320333	      7.31328624	      2.21646674	    -13.46558866	    -12.53777892	    -11.13535088	     23.73293355	     47.27315572	      0.00000000	      0.00000000	     24.73949870	    -17.03009862	     -8.42203103	     82.77992165	     47.91127876	      0.00000000	      0.00000000
     43.45657143	     -5.92319139	     -4.54207067	     -3.64750153	      0.98552193	      0.92266783	      0.42270056	     29.58735777	      0.09033699	    -13.89370930	     12.34351583	     12.34351583	      1.78083931	      4.81072840	      8.21385365	      2.57752875	     -4.19383026	     -9.92964374	     15.40273528	     15.40273528	     18.63515592	    -11.39737317	     -0.31933979	     -9.05323364	      7.17650042	      2.00957339	    -13.83310108	    -12.45495725	    -11.16474616	     23.65024559	     47.27447091	      0.00000000	      0.00000000	     24.77097048	    -16.98605068	     -8.37782640	     82.88005013	     47.91111268	      0.00000000	      0.00000000
     43.46900000	     -5.81131260	     -4.62656890	     -3.62309414	      0.98737719	      0.92149365	      0.42485847	     29.09345099	      0.31273285	    -14.38178223	     12.97785728	     12.97785728	      1.97938897	      4.93032983	      7.60989449	      1.77401037	     -4.45410830	    -10.18750803	     15.42431179	     15.42431179	     19.18090321	    -10.78392482	     -0.35477045	     -8.95309845	      7.22940531	      2.25740436	    -14.58641931	    -12.22724481	    -11.37470902	     23.76640131	     47.27054748	      0.00000000	      0.00000000	     24.69597794	    -16.70614557	     -7.93269569	     83.59086437	     47.90165486	      0.00000000	      0.00000000
     43.48142857	     -5.80501847	     -4.64703765	     -3.59355997	      0.98931665	      0.92021671	      0.42720523	     28.67499343	      0.51112406	    -14.44815532	     13.78458167	     13.78458167	      2.01614970	      4.56159238	      6.82802148	      1.16156841	     -4.66150846	    -10.32042274	     15.58362555	     15.58362555	     19.68351339	    -10.43149896	     -0.29580051	     -8.66254745	      7.17557842	      2.21268292	    -14.95118919	    -11.98819468	    -11.51821270	     23.88392638	     47.26649245	      0.00000000	      0.00000000	     24.46380458	    -16.59753164	     -7.60235114	     83.72202831	     47.88687485	      0.00000000	      0.00000000
     43.49385714	     -5.72988016	     -4.61306829	     -3.54832758	      0.99153342	      0.91896764	      0.42979146	     28.00981669	      0.75145756	    -14.08364302	     14.33146512	     14.33146512	      0.80863656	      3.47087349	      2.58412599	      0.66566317	     -4.96183168	    -10.95160772	     16.23633078	     16.23633078	     21.00875705	     -9.04973467	      1.01747660	     -8.41720136	      7.04825150	      2.44032380	    -15.46312608	    -11.52693885	    -12.22751771	     24.41738069	     47.25555840	      0.00000000	      0.00000000	     24.29289861	    -16.54887290	     -6.45421992	     83.75310448	     47.84852908	      0.00000000	      0.00000000
